<svg xmlns="http://www.w3.org/2000/svg" viewBox="0 0 73.33 72.87"><title>Asset 2</title><g id="abce38b7-54b0-492b-bc2f-88ea3fa9ef43" data-name="Layer 2"><g id="add85efb-1330-4f3c-8dd7-0df3e7237777" data-name="Layer 2"><path d="M34.74 1.18L.23 69.75a2.15 2.15 0 001.92 3.12h69a2.15 2.15 0 001.92-3.12L38.58 1.18a2.15 2.15 0 00-3.84 0z" fill="#a9862e"/><path d="M32.15 58.07a3.78 3.78 0 011.16-2.91 4.27 4.27 0 013-1.08 4.43 4.43 0 013.15 1.08 3.77 3.77 0 011.15 2.91 3.89 3.89 0 01-1.15 3 4.39 4.39 0 01-3.15 1.1 4.24 4.24 0 01-3-1.1 3.9 3.9 0 01-1.16-3zm.74-33.32h7V42l-1.37 8.57h-4.27L32.89 42z" fill="#fff"/></g></g></svg>