<svg xmlns="http://www.w3.org/2000/svg" viewBox="0 0 599.99 214.73"><defs><style>.a{fill:#f0b61b;}.b{font-size:75.77px;fill:#231f20;font-family:Steagal-Li, Steagal;}.c{letter-spacing:-0.01em;}.d{font-size:90.93px;font-family:Steagal-Bo, Steagal;font-weight:700;}.e{fill:#2d2a26;}</style></defs><title>Artboard 1</title><circle class="a" cx="107.37" cy="107.37" r="107.37"/><text class="b" transform="translate(268.29 83.92) scale(1.05 1)">EL<tspan class="c" x="71.91" y="0">E</tspan><tspan x="110.1" y="0">CTRIC</tspan><tspan class="d"><tspan x="-2.31" y="78.8">CITIZEN</tspan></tspan></text><path class="e" d="M125.56,74.9a101.28,101.28,0,0,0-8-19.76l-10.17-3.51L97.2,55.14a100.56,100.56,0,0,0-8,19.76c-1.71,6-19,79.37-19,81.21,0,4.61,35.09,28.83,37.23,28.83s37.22-25.24,37.22-29.85C144.59,153.25,127.27,80.94,125.56,74.9Z"/><path class="e" d="M106.55,55.79a38.33,38.33,0,0,0,10.73-.54c.11,0,4.06-5.15,7.72-9,5.79-6.13,6.74-10.51,5.79-12.21-.6-1.06-1.93-3.51-3.39-3.88-2.65-.68-9.46-.13-20-.13s-18.62-.49-20,.13S84.54,33,83.94,34c-.94,1.7-1.26,6.08,5.79,12.21,4.13,3.59,7.42,8.79,7.73,9C98.72,56.23,101,55.25,106.55,55.79Z"/><polygon class="a" points="93.06 77.58 112.72 83.62 112.72 110.67 119.82 97.86 120.38 156.57 113.61 123.63 105.98 130.31 93.06 77.58"/></svg>