<svg id="Layer_1" xmlns="http://www.w3.org/2000/svg" viewBox="0 0 80 80"><style>.st0{fill:#0077b5}</style><path class="st0" d="M40 2.3c-20.8 0-37.8 17-37.8 37.8s17 37.8 37.8 37.8 37.8-17 37.8-37.8S60.8 2.3 40 2.3zm-9.2 53.5H23V31.2h7.6v24.6h.2zm-4-27.6c-2.4 0-4.1-1.6-4.1-3.8s1.6-3.8 4.1-3.8 4.1 1.6 4.1 3.8c.2 1.9-1.4 3.8-4.1 3.8zm31.9 27.6h-7.6V42c0-3.2-1.1-5.4-3.8-5.4-2.2 0-3.2 1.4-4.1 3-.2.5-.2 1.1-.2 1.9v14.3h-7.6V39c0-3 0-5.7-.3-7.8h6.8l.3 3.5h.3c1.1-1.6 3.5-4.1 7.6-4.1 5.1 0 8.9 3.2 8.9 10.5v14.6h-.3z"/><path class="st0" d="M2.2 2h75.6v14.3H2.2zm0 55.7h75.6V78H2.2z"/><path class="st0" d="M67.9 1.9h10v72.9h-10zM2.1 2h10v72.9h-10z"/></svg>