<svg id="Layer_1" data-name="Layer 1" xmlns="http://www.w3.org/2000/svg" viewBox="0 0 80 80"><title>Artboard 1</title><path d="M2 2v76h76V2zm55.7 29.6v1.1c0 12.2-8.9 26.2-25 26.2a23.4 23.4 0 01-13.4-4.2 14.79 14.79 0 002.2.1 17.47 17.47 0 0010.9-3.9 9 9 0 01-8.2-6.3 8.6 8.6 0 001.6.1 9.08 9.08 0 002.3-.3 9.05 9.05 0 01-7-9v-.1a8.43 8.43 0 003.9 1.1 9 9 0 01-3.9-7.6 10.82 10.82 0 011.1-4.7 24.45 24.45 0 0018.1 9.6 13.8 13.8 0 01-.3-2 9 9 0 018.7-9.2 8.19 8.19 0 016.3 2.9 14.47 14.47 0 005.6-2.3 8.94 8.94 0 01-3.8 5.1 22.94 22.94 0 005.1-1.5 11.76 11.76 0 01-4.2 4.9z" id="Layer_5" data-name="Layer 5" fill="#60aadd"/></svg>