<svg id="Layer_1" data-name="Layer 1" xmlns="http://www.w3.org/2000/svg" viewBox="0 0 80 80"><defs><style>.cls-1{fill:#e32726}</style></defs><title>Artboard 1</title><g id="youtube"><path class="cls-1" d="M34.8 33l13.7 7.3-13.7 7.2V33z"/><path class="cls-1" d="M2 2v76h76V2zm63.3 40.8a81.44 81.44 0 01-.5 8.4s-.5 3.5-2 5.2a7.85 7.85 0 01-5.1 2.2C50.6 59 40 59 40 59s-13.2-.1-17.2-.5c-1.1-.3-3.7-.1-5.6-2.3-1.5-1.5-2-5.2-2-5.2a77.63 77.63 0 01-.5-8.2v-3.9a81.44 81.44 0 01.5-8.4s.5-3.5 2-5.2a7.85 7.85 0 015.1-2.2c7.1-.5 17.7-.5 17.7-.5s10.6 0 17.7.5a6.92 6.92 0 015.1 2.2c1.5 1.5 2 5.2 2 5.2a81.44 81.44 0 01.5 8.4z"/></g></svg>