<svg xmlns="http://www.w3.org/2000/svg" viewBox="0 0 18 18"><defs><style>.a{fill:#545454;stroke:#545454;stroke-miterlimit:10;stroke-width:0.5px;}</style></defs><title>Artboard 1</title><path class="a" d="M15,13.67h2V2H3.33V4H1V16H15ZM4,2.67H16.33V13H15V4H4Zm-.67,2h11V7.2L13,5.87,7.33,11.53,4,8.2,1.67,10.53V4.67Zm11,10.66H1.67V11.47L4,9.13l3.33,3.34L13,6.8l1.33,1.33v7.2Z"/><path class="a" d="M7.33,9A1.67,1.67,0,1,0,5.67,7.33,1.65,1.65,0,0,0,7.33,9Zm0-2.67a1,1,0,1,1-1,1A1,1,0,0,1,7.33,6.33Z"/></svg>