<svg width="240" height="160" viewBox="0 0 240 160" xmlns="http://www.w3.org/2000/svg" xmlns:xlink="http://www.w3.org/1999/xlink"><svg id="drupal" data-name="Layer 1" viewBox="0 0 80 80" width="80" height="80" xmlns="http://www.w3.org/2000/svg"><defs><style>.acls-1{fill:#00598e}</style></defs><path class="acls-1" d="M57 15.5C53 13 49.25 12 45.48 9.57 43.16 8 39.92 4.24 37.21 1c-.52 5.19-2.1 7.29-3.91 8.8-3.83 3-6.23 3.91-9.54 5.71C21 16.93 5.88 25.95 5.88 45.34S22.2 79 40.3 79s33.82-13.15 33.82-33.06S59.39 17 57 15.5zm.43 56.43a16.21 16.21 0 0 1-7.9 3.16c-4.07.37-9.54.6-12.84-2.4a1.09 1.09 0 0 1 0-1.58 1.77 1.77 0 0 1 1.12-.52c.44 0 .38 0 .61.15 1.5 1.2 3.76 2.18 8.57 2.18s8.19-1.36 9.69-2.48c.68-.52 1-.08 1.05.22a1.17 1.17 0 0 1-.32 1.27zm-13.17-6.84a13.72 13.72 0 0 1 3.46-2.48 6.66 6.66 0 0 1 3.16-.45 6.25 6.25 0 0 1 3.39.68 5.93 5.93 0 0 1 1.73 2.7 1.06 1.06 0 0 1-.6 1.5c-.52.3-.6.15-1.12-.82s-1-2-3.61-2-3.46.9-4.73 2-1.72 1.42-2.18.82-.32-1.2.5-1.95zm19.94.59c-2.71-.22-8.12-8.64-11.57-8.8C48.27 56.74 38.8 66 31.36 66c-4.51 0-5.86-.68-7.36-1.65-2.28-1.57-3.41-4-3.33-7.28.08-5.86 5.56-11.34 12.47-11.42 8.8-.08 14.88 8.72 19.32 8.64 3.76-.08 11-7.43 14.51-7.43 3.76 0 4.81 3.91 4.81 6.23a18.5 18.5 0 0 1-2.55 9.17c-1.81 2.6-2.93 3.57-5.03 3.42z"/></svg><svg id="facebook" viewBox="0 0 80 80" width="80" height="80" x="80" xmlns="http://www.w3.org/2000/svg"><style>.bst0{fill:#4664af}</style><path class="bst0" d="M2 2v76h76V2H2zm48 39.5h-7V59h-6.3V41.5h-6.3v-6.3h6.3v-4.8c0-6 4.4-9.4 9.8-9.4 2.5 0 3.8.3 4.4.4v6h-4.4c-2.9 0-3.4 1.4-3.4 3.4v4.4h8L50 41.5z"/></svg><svg id="linkedin" viewBox="0 0 80 80" width="80" height="80" y="80" xmlns="http://www.w3.org/2000/svg"><style>.cst0{fill:#0077b5}</style><path class="cst0" d="M40 2.3c-20.8 0-37.8 17-37.8 37.8s17 37.8 37.8 37.8 37.8-17 37.8-37.8S60.8 2.3 40 2.3zm-9.2 53.5H23V31.2h7.6v24.6h.2zm-4-27.6c-2.4 0-4.1-1.6-4.1-3.8s1.6-3.8 4.1-3.8 4.1 1.6 4.1 3.8c.2 1.9-1.4 3.8-4.1 3.8zm31.9 27.6h-7.6V42c0-3.2-1.1-5.4-3.8-5.4-2.2 0-3.2 1.4-4.1 3-.2.5-.2 1.1-.2 1.9v14.3h-7.6V39c0-3 0-5.7-.3-7.8h6.8l.3 3.5h.3c1.1-1.6 3.5-4.1 7.6-4.1 5.1 0 8.9 3.2 8.9 10.5v14.6h-.3z"/><path class="cst0" d="M2.2 2h75.6v14.3H2.2zM2.2 57.7h75.6V78H2.2z"/><path class="cst0" d="M67.9 1.9h10v72.9h-10zM2.1 2h10v72.9h-10z"/></svg><svg id="twitter" data-name="Layer 1" viewBox="0 0 80 80" width="80" height="80" x="80" y="80" xmlns="http://www.w3.org/2000/svg"><defs><style>.dcls-1{fill:#60aadd}</style></defs><path class="dcls-1" d="M2 2v76h76V2zm55.7 29.6v1.1c0 12.2-8.9 26.2-25 26.2a23.4 23.4 0 0 1-13.4-4.2 14.79 14.79 0 0 0 2.2.1 17.47 17.47 0 0 0 10.9-3.9 9 9 0 0 1-8.2-6.3 8.6 8.6 0 0 0 1.6.1 9.08 9.08 0 0 0 2.3-.3 9.05 9.05 0 0 1-7-9v-.1a8.43 8.43 0 0 0 3.9 1.1 9 9 0 0 1-3.9-7.6 10.82 10.82 0 0 1 1.1-4.7 24.45 24.45 0 0 0 18.1 9.6 13.8 13.8 0 0 1-.3-2 9 9 0 0 1 8.7-9.2 8.19 8.19 0 0 1 6.3 2.9 14.47 14.47 0 0 0 5.6-2.3 8.94 8.94 0 0 1-3.8 5.1 22.94 22.94 0 0 0 5.1-1.5 11.76 11.76 0 0 1-4.2 4.9z" id="dLayer_5" data-name="Layer 5"/></svg><svg id="youtube" data-name="Layer 1" viewBox="0 0 80 80" width="80" height="80" x="160" xmlns="http://www.w3.org/2000/svg"><defs><style>.ecls-1{fill:#e32726}</style></defs><g id="eyoutube"><path class="ecls-1" d="M34.8 33l13.7 7.3-13.7 7.2V33z"/><path class="ecls-1" d="M2 2v76h76V2zm63.3 40.8a81.44 81.44 0 0 1-.5 8.4s-.5 3.5-2 5.2a7.85 7.85 0 0 1-5.1 2.2C50.6 59 40 59 40 59s-13.2-.1-17.2-.5c-1.1-.3-3.7-.1-5.6-2.3-1.5-1.5-2-5.2-2-5.2a77.63 77.63 0 0 1-.5-8.2v-3.9a81.44 81.44 0 0 1 .5-8.4s.5-3.5 2-5.2a7.85 7.85 0 0 1 5.1-2.2c7.1-.5 17.7-.5 17.7-.5s10.6 0 17.7.5a6.92 6.92 0 0 1 5.1 2.2c1.5 1.5 2 5.2 2 5.2a81.44 81.44 0 0 1 .5 8.4z"/></g></svg></svg>