<?xml version="1.0" encoding="utf-8"?>
<!-- Generator: Adobe Illustrator 22.1.0, SVG Export Plug-In . SVG Version: 6.00 Build 0)  -->
<svg version="1.1" id="excel" xmlns="http://www.w3.org/2000/svg" xmlns:xlink="http://www.w3.org/1999/xlink" x="0px" y="0px"
	 viewBox="0 0 80 80" style="enable-background:new 0 0 80 80;" xml:space="preserve">
<style type="text/css">
	.st0{fill:none;stroke:#4A4A4A;stroke-width:5.5224;stroke-miterlimit:10;}
	.st1{fill:#4A4A4A;}
</style>
<title>Artboard 1</title>
<path class="st0" d="M9.4,3h43.5c0.6,0,1.1,0.2,1.4,0.7l16.5,17.5c0.4,0.4,0.6,1,0.6,1.5v53c0,0.8-0.6,1.3-1.3,1.3H9.8
	c-0.8,0-1.3-0.6-1.3-1.3V3.9C8.5,3.4,8.9,3,9.4,3L9.4,3z"/>
<path class="st0" d="M48.8,3v20.5c0,0.6,0.4,1,1,1l0,0h21.6"/>
<path class="st1" d="M46.2,38.1h-4.5v-5h14.5v5h-3.9l-9.4,12.7l9.6,13.5h4.6v5H46.7v-4.4L39.9,55l-6.7,9.4h4.6v4.9H22.9v-4.9h4
	l9.8-13.6l-8.9-12.6h-4.2v-5h9.9v4.5l6.2,8.9L46.2,38.1z"/>
</svg>
