<?xml version="1.0" encoding="utf-8"?>
<!-- Generator: Adobe Illustrator 22.1.0, SVG Export Plug-In . SVG Version: 6.00 Build 0)  -->
<svg version="1.1" id="Layer_1" xmlns="http://www.w3.org/2000/svg" xmlns:xlink="http://www.w3.org/1999/xlink" x="0px" y="0px"
	 viewBox="0 0 80 80" style="enable-background:new 0 0 80 80;" xml:space="preserve">
<style type="text/css">
	.st0{fill:none;stroke:#4A4A4A;stroke-width:5.5224;stroke-miterlimit:10;}
	.st1{fill:#4A4A4A;}
</style>
<title>Artboard 1</title>
<path class="st0" d="M9.4,3h43.5c0.6,0,1.1,0.2,1.4,0.7l16.5,17.5c0.4,0.4,0.6,1,0.6,1.5v53c0,0.8-0.6,1.3-1.3,1.3H9.8
	c-0.8,0-1.3-0.6-1.3-1.3V3.9C8.5,3.4,8.9,3,9.4,3L9.4,3z"/>
<path class="st0" d="M48.8,3v20.5c0,0.6,0.4,1,1,1l0,0h21.6"/>
<path class="st1" d="M51.6,68.9h-4.4l-7.5-23.7l-7.3,23.7h-4.6L18.7,38h-3v-4.9h11.5V38h-3.4l6.5,23.3l8-27.2h3l8.1,27.2L55.6,38
	h-3.4v-4.9h11.6V38h-3L51.6,68.9z"/>
</svg>
